<?xml version="1.0" encoding="UTF-8"?>
<svg xmlns="http://www.w3.org/2000/svg" xmlns:xlink="http://www.w3.org/1999/xlink" width="24px" height="24px" viewBox="0 0 24 24" version="1.1">
<g id="surface1">
<path style=" stroke:none;fill-rule:nonzero;fill:rgb(13.725491%,12.156863%,12.54902%);fill-opacity:1;" d="M 20.46875 10.128906 L 21.664062 8.929688 C 21.710938 8.886719 21.734375 8.824219 21.734375 8.761719 C 21.734375 8.699219 21.710938 8.636719 21.664062 8.589844 L 20.234375 7.164062 C 20.140625 7.070312 19.988281 7.070312 19.894531 7.164062 L 18.699219 8.359375 C 18.019531 7.878906 17.265625 7.511719 16.464844 7.28125 L 16.476562 4.660156 L 17.207031 4.660156 C 17.339844 4.660156 17.449219 4.554688 17.449219 4.421875 L 17.449219 2.398438 C 17.449219 2.265625 17.339844 2.160156 17.207031 2.160156 L 11.621094 2.160156 C 11.488281 2.160156 11.378906 2.265625 11.378906 2.398438 L 11.378906 4.421875 C 11.378906 4.554688 11.488281 4.660156 11.621094 4.660156 L 12.351562 4.660156 L 12.351562 7.226562 C 11.933594 7.40625 11.519531 7.566406 11.121094 7.765625 C 11.15625 7.726562 11.175781 7.671875 11.175781 7.617188 L 11.175781 5.71875 C 11.175781 5.601562 11.085938 5.5 10.96875 5.480469 L 9.898438 5.332031 L 10.550781 4.464844 C 10.621094 4.371094 10.613281 4.238281 10.527344 4.152344 L 9.183594 2.808594 C 9.097656 2.722656 8.964844 2.714844 8.867188 2.785156 L 8.003906 3.4375 L 7.855469 2.367188 C 7.835938 2.246094 7.734375 2.160156 7.617188 2.160156 L 5.71875 2.160156 C 5.601562 2.160156 5.5 2.246094 5.480469 2.367188 L 5.332031 3.4375 L 4.464844 2.789062 C 4.367188 2.714844 4.234375 2.726562 4.148438 2.808594 L 2.808594 4.152344 C 2.722656 4.238281 2.714844 4.371094 2.785156 4.46875 L 3.4375 5.332031 L 2.367188 5.484375 C 2.246094 5.5 2.160156 5.601562 2.160156 5.71875 L 2.160156 7.617188 C 2.15625 7.738281 2.246094 7.839844 2.367188 7.859375 L 3.4375 8.007812 L 2.785156 8.871094 C 2.714844 8.96875 2.722656 9.101562 2.808594 9.1875 L 4.152344 10.53125 C 4.238281 10.617188 4.371094 10.625 4.464844 10.554688 L 5.332031 9.902344 L 5.480469 10.972656 C 5.5 11.09375 5.601562 11.179688 5.71875 11.179688 L 7.617188 11.179688 C 7.671875 11.179688 7.726562 11.160156 7.765625 11.125 C 7.253906 12.148438 6.988281 13.273438 6.988281 14.417969 C 6.988281 14.765625 7.015625 15.113281 7.0625 15.457031 L 6.835938 15.628906 L 6.730469 14.875 C 6.714844 14.757812 6.609375 14.667969 6.488281 14.667969 L 5.003906 14.667969 C 4.882812 14.667969 4.78125 14.757812 4.765625 14.875 L 4.65625 15.628906 L 4.050781 15.167969 C 3.957031 15.097656 3.820312 15.105469 3.738281 15.191406 L 2.683594 16.242188 C 2.601562 16.328125 2.589844 16.460938 2.664062 16.554688 L 3.121094 17.164062 L 2.367188 17.269531 C 2.246094 17.285156 2.160156 17.390625 2.160156 17.511719 L 2.160156 18.996094 C 2.160156 19.117188 2.246094 19.21875 2.367188 19.234375 L 3.121094 19.34375 L 2.664062 19.949219 C 2.589844 20.042969 2.601562 20.179688 2.683594 20.261719 L 3.738281 21.316406 C 3.820312 21.398438 3.957031 21.410156 4.050781 21.335938 L 4.660156 20.878906 L 4.765625 21.632812 C 4.78125 21.753906 4.882812 21.839844 5.003906 21.839844 L 6.492188 21.839844 C 6.613281 21.839844 6.714844 21.753906 6.730469 21.632812 L 6.835938 20.878906 L 7.445312 21.339844 C 7.542969 21.410156 7.675781 21.398438 7.757812 21.316406 L 8.8125 20.261719 C 8.898438 20.179688 8.90625 20.042969 8.835938 19.949219 L 8.375 19.339844 L 8.8125 19.28125 C 11.402344 22.269531 15.886719 22.699219 18.996094 20.253906 C 22.109375 17.8125 22.757812 13.355469 20.46875 10.128906 Z M 5.746094 19.644531 C 4.980469 19.644531 4.355469 19.019531 4.355469 18.253906 C 4.355469 17.484375 4.980469 16.859375 5.746094 16.859375 C 6.515625 16.859375 7.140625 17.484375 7.140625 18.253906 C 7.140625 19.019531 6.515625 19.644531 5.746094 19.644531 Z M 7.859375 10.929688 L 8.003906 9.898438 L 8.339844 10.152344 C 8.164062 10.398438 8.003906 10.660156 7.859375 10.929688 Z M 6.667969 8.507812 C 5.652344 8.507812 4.828125 7.683594 4.828125 6.667969 C 4.828125 5.652344 5.652344 4.828125 6.667969 4.828125 C 7.683594 4.828125 8.507812 5.652344 8.507812 6.667969 C 8.507812 7.683594 7.683594 8.507812 6.667969 8.507812 Z M 10.152344 8.34375 L 9.898438 8.007812 L 10.929688 7.863281 C 10.660156 8.007812 10.398438 8.167969 10.152344 8.34375 Z M 10.152344 8.34375 "/>
<path style=" stroke:none;fill-rule:nonzero;fill:rgb(100%,72.941178%,31.37255%);fill-opacity:1;" d="M 14.414062 21.359375 C 12.46875 21.359375 10.617188 20.539062 9.304688 19.105469 L 9.335938 17.507812 C 9.335938 17.386719 9.25 17.285156 9.128906 17.265625 L 8.375 17.160156 L 8.832031 16.550781 C 8.90625 16.457031 8.894531 16.324219 8.8125 16.238281 L 7.757812 15.1875 C 7.691406 15.121094 7.597656 15.101562 7.507812 15.132812 C 7.484375 14.890625 7.46875 14.652344 7.46875 14.410156 C 7.46875 10.574219 10.582031 7.464844 14.414062 7.46875 C 18.25 7.46875 21.359375 10.578125 21.359375 14.414062 C 21.359375 18.25 18.25 21.359375 14.414062 21.359375 Z M 14.414062 21.359375 "/>
<path style=" stroke:none;fill-rule:nonzero;fill:rgb(13.725491%,12.156863%,12.54902%);fill-opacity:1;" d="M 14.402344 8.75 C 11.273438 8.75 8.738281 11.285156 8.738281 14.414062 C 8.738281 17.539062 11.273438 20.078125 14.402344 20.078125 C 17.53125 20.078125 20.066406 17.539062 20.066406 14.414062 C 20.0625 11.285156 17.527344 8.753906 14.402344 8.75 Z M 14.402344 8.75 "/>
<path style=" stroke:none;fill-rule:nonzero;fill:rgb(100%,100%,100%);fill-opacity:1;" d="M 14.402344 19.597656 C 11.539062 19.597656 9.21875 17.277344 9.21875 14.414062 C 9.21875 11.550781 11.539062 9.230469 14.402344 9.230469 C 17.265625 9.230469 19.585938 11.550781 19.585938 14.414062 C 19.582031 17.277344 17.265625 19.59375 14.402344 19.597656 Z M 14.402344 19.597656 "/>
<path style=" stroke:none;fill-rule:nonzero;fill:rgb(55.29412%,49.803922%,53.725493%);fill-opacity:1;" d="M 9.425781 7.585938 L 10.695312 7.410156 L 10.695312 5.929688 L 9.425781 5.75 C 9.34375 5.738281 9.269531 5.683594 9.238281 5.601562 C 9.203125 5.523438 9.214844 5.433594 9.269531 5.363281 L 10.039062 4.339844 L 8.992188 3.296875 L 7.96875 4.066406 C 7.898438 4.121094 7.808594 4.132812 7.730469 4.097656 C 7.652344 4.066406 7.59375 3.992188 7.585938 3.910156 L 7.410156 2.640625 L 5.929688 2.640625 L 5.75 3.910156 C 5.738281 3.992188 5.683594 4.066406 5.601562 4.097656 C 5.523438 4.132812 5.433594 4.121094 5.367188 4.066406 L 4.34375 3.296875 L 3.296875 4.34375 L 4.066406 5.367188 C 4.121094 5.433594 4.132812 5.523438 4.097656 5.605469 C 4.066406 5.683594 3.992188 5.738281 3.910156 5.75 L 2.640625 5.929688 L 2.640625 7.410156 L 3.910156 7.585938 C 3.992188 7.597656 4.066406 7.652344 4.097656 7.734375 C 4.132812 7.8125 4.121094 7.902344 4.066406 7.972656 L 3.296875 8.992188 L 4.34375 10.039062 L 5.367188 9.269531 C 5.433594 9.214844 5.527344 9.203125 5.605469 9.238281 C 5.683594 9.269531 5.738281 9.34375 5.75 9.425781 L 5.929688 10.695312 L 7.410156 10.695312 L 7.589844 9.425781 C 7.601562 9.34375 7.65625 9.269531 7.734375 9.238281 C 7.816406 9.203125 7.90625 9.214844 7.972656 9.269531 L 8.632812 9.765625 C 8.972656 9.347656 9.351562 8.96875 9.769531 8.628906 L 9.269531 7.96875 C 9.214844 7.898438 9.203125 7.808594 9.238281 7.730469 C 9.269531 7.652344 9.34375 7.59375 9.425781 7.585938 Z M 6.667969 8.507812 C 5.652344 8.507812 4.828125 7.683594 4.828125 6.667969 C 4.828125 5.652344 5.652344 4.828125 6.667969 4.828125 C 7.683594 4.828125 8.507812 5.652344 8.507812 6.667969 C 8.507812 7.683594 7.683594 8.507812 6.667969 8.507812 Z M 6.667969 8.507812 "/>
<path style=" stroke:none;fill-rule:nonzero;fill:rgb(13.725491%,12.156863%,12.54902%);fill-opacity:1;" d="M 6.667969 4.347656 C 5.386719 4.347656 4.347656 5.386719 4.347656 6.667969 C 4.347656 7.949219 5.386719 8.988281 6.667969 8.988281 C 7.949219 8.988281 8.988281 7.949219 8.988281 6.667969 C 8.988281 5.386719 7.949219 4.347656 6.667969 4.347656 Z M 6.667969 8.507812 C 5.652344 8.507812 4.828125 7.683594 4.828125 6.667969 C 4.828125 5.652344 5.652344 4.828125 6.667969 4.828125 C 7.683594 4.828125 8.507812 5.652344 8.507812 6.667969 C 8.507812 7.683594 7.683594 8.507812 6.667969 8.507812 Z M 6.667969 8.507812 "/>
<path style=" stroke:none;fill-rule:nonzero;fill:rgb(55.29412%,49.803922%,53.725493%);fill-opacity:1;" d="M 7.90625 18.921875 L 8.855469 18.789062 L 8.855469 17.714844 L 7.90625 17.582031 C 7.820312 17.570312 7.746094 17.515625 7.714844 17.4375 C 7.683594 17.355469 7.695312 17.265625 7.746094 17.199219 L 8.324219 16.429688 L 7.566406 15.671875 L 6.796875 16.25 C 6.730469 16.300781 6.640625 16.3125 6.558594 16.28125 C 6.480469 16.25 6.425781 16.175781 6.414062 16.089844 L 6.28125 15.140625 L 5.210938 15.140625 L 5.078125 16.089844 C 5.066406 16.175781 5.011719 16.25 4.929688 16.28125 C 4.851562 16.3125 4.761719 16.300781 4.695312 16.25 L 3.925781 15.671875 L 3.171875 16.433594 L 3.746094 17.203125 C 3.800781 17.269531 3.8125 17.359375 3.777344 17.4375 C 3.746094 17.519531 3.671875 17.574219 3.589844 17.585938 L 2.636719 17.71875 L 2.636719 18.789062 L 3.589844 18.925781 C 3.671875 18.9375 3.746094 18.992188 3.777344 19.070312 C 3.8125 19.148438 3.800781 19.242188 3.746094 19.308594 L 3.171875 20.078125 L 3.929688 20.835938 L 4.699219 20.257812 C 4.765625 20.207031 4.855469 20.195312 4.933594 20.226562 C 5.015625 20.261719 5.070312 20.332031 5.082031 20.417969 L 5.214844 21.367188 L 6.285156 21.367188 L 6.421875 20.417969 C 6.433594 20.332031 6.488281 20.261719 6.566406 20.226562 C 6.644531 20.195312 6.738281 20.207031 6.804688 20.257812 L 7.574219 20.835938 L 8.328125 20.078125 L 7.753906 19.308594 C 7.703125 19.242188 7.691406 19.148438 7.722656 19.070312 C 7.753906 18.992188 7.828125 18.9375 7.914062 18.925781 Z M 5.746094 19.644531 C 4.980469 19.644531 4.355469 19.019531 4.355469 18.253906 C 4.355469 17.484375 4.980469 16.859375 5.746094 16.859375 C 6.515625 16.859375 7.140625 17.484375 7.140625 18.253906 C 7.140625 19.019531 6.515625 19.644531 5.746094 19.644531 Z M 5.746094 19.644531 "/>
<path style=" stroke:none;fill-rule:nonzero;fill:rgb(13.725491%,12.156863%,12.54902%);fill-opacity:1;" d="M 5.746094 16.378906 C 4.714844 16.378906 3.875 17.21875 3.875 18.253906 C 3.875 19.285156 4.714844 20.125 5.746094 20.125 C 6.78125 20.125 7.621094 19.285156 7.621094 18.253906 C 7.617188 17.21875 6.78125 16.382812 5.746094 16.378906 Z M 5.746094 19.644531 C 4.980469 19.644531 4.355469 19.019531 4.355469 18.253906 C 4.355469 17.484375 4.980469 16.859375 5.746094 16.859375 C 6.515625 16.859375 7.140625 17.484375 7.140625 18.253906 C 7.140625 19.019531 6.515625 19.644531 5.746094 19.644531 Z M 5.746094 19.644531 "/>
<path style=" stroke:none;fill-rule:nonzero;fill:rgb(13.725491%,12.156863%,12.54902%);fill-opacity:1;" d="M 18.390625 14.171875 L 15.460938 14.171875 C 15.367188 13.765625 15.050781 13.449219 14.640625 13.359375 L 14.640625 10.289062 C 14.640625 10.15625 14.53125 10.050781 14.402344 10.050781 C 14.269531 10.050781 14.160156 10.15625 14.160156 10.289062 L 14.160156 13.367188 C 13.644531 13.492188 13.292969 13.972656 13.335938 14.503906 C 13.382812 15.035156 13.804688 15.453125 14.335938 15.488281 C 14.867188 15.527344 15.34375 15.171875 15.460938 14.652344 L 18.390625 14.652344 C 18.523438 14.652344 18.628906 14.546875 18.628906 14.414062 C 18.628906 14.28125 18.523438 14.171875 18.390625 14.171875 Z M 14.414062 15.011719 C 14.082031 15.011719 13.8125 14.746094 13.8125 14.414062 C 13.8125 14.082031 14.082031 13.8125 14.414062 13.8125 C 14.746094 13.8125 15.011719 14.082031 15.011719 14.414062 C 15.011719 14.746094 14.746094 15.011719 14.414062 15.011719 Z M 14.414062 15.011719 "/>
<path style=" stroke:none;fill-rule:nonzero;fill:rgb(13.725491%,12.156863%,12.54902%);fill-opacity:1;" d="M 14.414062 17.609375 C 14.28125 17.609375 14.171875 17.714844 14.171875 17.847656 L 14.171875 18.628906 C 14.171875 18.761719 14.28125 18.867188 14.414062 18.867188 C 14.546875 18.867188 14.652344 18.761719 14.652344 18.628906 L 14.652344 17.847656 C 14.652344 17.714844 14.546875 17.609375 14.414062 17.609375 Z M 14.414062 17.609375 "/>
<path style=" stroke:none;fill-rule:nonzero;fill:rgb(13.725491%,12.156863%,12.54902%);fill-opacity:1;" d="M 11.253906 14.414062 C 11.253906 14.28125 11.148438 14.171875 11.015625 14.171875 L 10.234375 14.171875 C 10.101562 14.171875 9.992188 14.28125 9.992188 14.414062 C 9.992188 14.546875 10.101562 14.652344 10.234375 14.652344 L 11.015625 14.652344 C 11.148438 14.652344 11.253906 14.546875 11.253906 14.414062 Z M 11.253906 14.414062 "/>
<path style=" stroke:none;fill-rule:nonzero;fill:rgb(13.725491%,12.156863%,12.54902%);fill-opacity:1;" d="M 16.320312 17.273438 C 16.25 17.164062 16.109375 17.128906 15.996094 17.191406 C 15.886719 17.257812 15.84375 17.398438 15.90625 17.511719 L 16.292969 18.1875 C 16.363281 18.296875 16.503906 18.332031 16.617188 18.269531 C 16.730469 18.203125 16.769531 18.0625 16.710938 17.949219 Z M 16.320312 17.273438 "/>
<path style=" stroke:none;fill-rule:nonzero;fill:rgb(13.725491%,12.156863%,12.54902%);fill-opacity:1;" d="M 12.53125 10.707031 C 12.492188 10.628906 12.410156 10.582031 12.320312 10.578125 C 12.234375 10.578125 12.152344 10.625 12.109375 10.703125 C 12.066406 10.78125 12.070312 10.875 12.117188 10.949219 L 12.507812 11.625 C 12.550781 11.699219 12.628906 11.742188 12.714844 11.746094 C 12.757812 11.746094 12.796875 11.734375 12.832031 11.710938 C 12.949219 11.644531 12.988281 11.5 12.921875 11.382812 Z M 12.53125 10.707031 "/>
<path style=" stroke:none;fill-rule:nonzero;fill:rgb(13.725491%,12.156863%,12.54902%);fill-opacity:1;" d="M 11.332031 15.910156 L 10.65625 16.300781 C 10.578125 16.339844 10.527344 16.421875 10.527344 16.511719 C 10.527344 16.597656 10.574219 16.679688 10.648438 16.722656 C 10.726562 16.765625 10.820312 16.761719 10.894531 16.714844 L 11.570312 16.324219 C 11.648438 16.28125 11.691406 16.203125 11.691406 16.117188 C 11.695312 16.03125 11.648438 15.953125 11.574219 15.910156 C 11.5 15.867188 11.40625 15.867188 11.332031 15.910156 Z M 11.332031 15.910156 "/>
<path style=" stroke:none;fill-rule:nonzero;fill:rgb(13.725491%,12.156863%,12.54902%);fill-opacity:1;" d="M 17.339844 12.960938 C 17.382812 12.960938 17.425781 12.949219 17.460938 12.929688 L 18.136719 12.539062 C 18.210938 12.496094 18.257812 12.414062 18.257812 12.328125 C 18.257812 12.242188 18.210938 12.164062 18.136719 12.121094 C 18.0625 12.078125 17.972656 12.078125 17.898438 12.121094 L 17.21875 12.511719 C 17.125 12.566406 17.082031 12.675781 17.109375 12.78125 C 17.136719 12.886719 17.230469 12.960938 17.339844 12.960938 Z M 17.339844 12.960938 "/>
<path style=" stroke:none;fill-rule:nonzero;fill:rgb(13.725491%,12.156863%,12.54902%);fill-opacity:1;" d="M 18.152344 16.320312 L 17.476562 15.929688 C 17.359375 15.863281 17.214844 15.902344 17.148438 16.019531 C 17.082031 16.132812 17.121094 16.277344 17.234375 16.34375 L 17.910156 16.734375 C 17.984375 16.78125 18.078125 16.785156 18.15625 16.742188 C 18.234375 16.699219 18.28125 16.617188 18.28125 16.53125 C 18.277344 16.441406 18.230469 16.359375 18.152344 16.320312 Z M 18.152344 16.320312 "/>
<path style=" stroke:none;fill-rule:nonzero;fill:rgb(13.725491%,12.156863%,12.54902%);fill-opacity:1;" d="M 11.585938 12.53125 L 10.910156 12.144531 C 10.796875 12.078125 10.652344 12.117188 10.585938 12.234375 C 10.519531 12.347656 10.558594 12.492188 10.671875 12.558594 L 11.347656 12.949219 C 11.460938 13.015625 11.609375 12.976562 11.675781 12.859375 C 11.738281 12.746094 11.703125 12.601562 11.585938 12.535156 Z M 11.585938 12.53125 "/>
<path style=" stroke:none;fill-rule:nonzero;fill:rgb(13.725491%,12.156863%,12.54902%);fill-opacity:1;" d="M 12.800781 17.160156 C 12.6875 17.09375 12.539062 17.132812 12.472656 17.246094 L 12.085938 17.921875 C 12.035156 17.996094 12.035156 18.089844 12.078125 18.167969 C 12.121094 18.246094 12.203125 18.292969 12.289062 18.292969 C 12.378906 18.289062 12.457031 18.242188 12.5 18.164062 L 12.890625 17.488281 C 12.957031 17.371094 12.917969 17.226562 12.800781 17.160156 Z M 12.800781 17.160156 "/>
<path style=" stroke:none;fill-rule:nonzero;fill:rgb(13.725491%,12.156863%,12.54902%);fill-opacity:1;" d="M 15.960938 11.6875 C 16.078125 11.753906 16.222656 11.714844 16.289062 11.597656 L 16.679688 10.921875 C 16.726562 10.847656 16.730469 10.753906 16.6875 10.675781 C 16.644531 10.601562 16.5625 10.550781 16.472656 10.554688 C 16.386719 10.554688 16.304688 10.605469 16.265625 10.683594 L 15.875 11.359375 C 15.808594 11.472656 15.847656 11.621094 15.960938 11.6875 Z M 15.960938 11.6875 "/>
<path style=" stroke:none;fill-rule:nonzero;fill:rgb(100%,55.686277%,35.294119%);fill-opacity:1;" d="M 20.066406 7.671875 L 21.15625 8.761719 L 20.175781 9.738281 C 19.851562 9.339844 19.488281 8.976562 19.085938 8.648438 Z M 20.066406 7.671875 "/>
<path style=" stroke:none;fill-rule:nonzero;fill:rgb(100%,55.686277%,35.294119%);fill-opacity:1;" d="M 11.859375 2.640625 L 16.96875 2.640625 L 16.96875 4.179688 L 11.859375 4.179688 Z M 11.859375 2.640625 "/>
<path style=" stroke:none;fill-rule:nonzero;fill:rgb(100%,55.686277%,35.294119%);fill-opacity:1;" d="M 12.828125 4.660156 L 15.996094 4.660156 L 15.996094 7.160156 C 14.953125 6.929688 13.875 6.929688 12.828125 7.160156 Z M 12.828125 4.660156 "/>
</g>
</svg>
